PathFileType	4	(X/Y/Z)	C:/Users/beibeiliu/ov580/test_trc/User3\sequence.19_training_dense_right.trc
DataRate	CameraRate	NumFrames	NumMarkers	Units	OrigDataRate	OrigDataStartFrame	OrigNumFrames
120	120	20	19	mm	120	35	275
Frame#	Time	ThumbCMC			ThumbMCP			ThumbIP			ThumbTip			IndexMCP			IndexPIP			IndexTip			MiddleMCP			MiddlePIP			MiddleTip			RingMCP			RingPIP			RingTip			PinkyMCP			PinkyPIP			PinkyTip			BackHand1			BackHand2			BackHand3	
		X0	Y0	Z0	X1	Y1	Z1	X2	Y2	Z2	X3	Y3	Z3	X4	Y4	Z4	X5	Y5	Z5	X6	Y6	Z6	X7	Y7	Z7	X8	Y8	Z8	X9	Y9	Z9	X10	Y10	Z10	X11	Y11	Z11	X12	Y12	Z12	X13	Y13	Z13	X14	Y14	Z14	X15	Y15	Z15	X16	Y16	Z16	X17	Y17	Z17	X18	Y18	Z18	
34	0.283333	131.475	-24.9642	25.8195	106.043	-28.7809	10.0493	88.077	-32.9298	-4.68965	64.8799	-33.3678	-15.8578	144.987	-21.3465	-51.643	137.683	-22.4755	-80.9135	139.397	-26.9694	-101.251	155.064	-47.6844	-56.7402	148.337	-77.8751	-52.9526	149.534	-72.7673	-11.6698	173.424	-56.557	-46.7827	167.536	-83.2028	-37.4916	160.733	-72.0441	-3.23198	192.359	-60.0707	-37.8635	181.064	-83.3041	-29.0789	171.936	-71.8594	-2.65895	190.22	-16.873	-4.16994	192.572	-13.0336	25.7342	157.419	-8.03897	10.4134	
35	0.291667	133.164	-24.7218	28.7484	107.264	-28.7636	7.73547	84.8687	-30.9767	-5.124	69.208	-34.2824	-17.6999	142.972	-20.2136	-54.9943	144.406	-25.2452	-76.9533	141.247	-27.2628	-101.452	159.523	-50.3026	-57.444	151.966	-80.7714	-50.1932	154.27	-74.5765	-11.5456	179.069	-57.5306	-44.7472	166.309	-84.9963	-32.7711	165.283	-71.796	-0.0420386	192.739	-62.1093	-37.9786	182.497	-82.1319	-28.7648	175.134	-70.2422	-0.303207	187.883	-13.4491	-5.22863	193.584	-11.0923	27.8265	160.919	-7.14583	10.8005	
36	0.3	132.407	-24.6579	24.6373	110.803	-30.3736	10.0429	84.6362	-30.5548	-10.0137	67.8572	-33.1319	-17.139	148.3	-23.1142	-53.8727	143.207	-25.8857	-77.9012	146.916	-30.1517	-100.431	158.673	-50.7412	-56.3052	154.464	-80.7954	-50.0834	151.43	-73.5058	-8.80574	178.914	-58.0579	-43.674	169.579	-85.6836	-29.4899	164.822	-71.4437	-0.258683	197.571	-61.5616	-33.4055	182.181	-85.2648	-20.2692	174.721	-72.9322	1.55873	188.488	-16.0406	-4.81323	191.663	-10.3847	22.6977	160.174	-7.50982	13.3678	
37	0.308333	133.816	-26.4601	28.4447	109.07	-30.2379	10.9848	83.7407	-31.0957	-9.86303	67.2283	-33.6484	-18.209	147.839	-24.5537	-52.0279	147.556	-26.9754	-76.648	143.932	-28.313	-102.506	162.807	-51.2093	-55.9524	158.273	-82.4154	-48.9605	156.053	-74.4027	-9.58542	180.841	-58.1783	-43.7134	170.633	-86.1331	-28.1513	164.077	-73.0697	-0.802624	197.885	-64.4882	-32.6398	182.911	-84.5482	-18.1219	174.574	-67.7212	5.04332	190.492	-14.3165	-3.7508	195.344	-10.1293	23.0012	159.401	-8.52447	8.21187	
38	0.316667	132.642	-25.8135	28.7869	110.166	-30.5286	10.148	85.6173	-31.3379	-9.72122	69.4887	-34.9997	-16.2488	148.312	-24.9751	-55.731	145.435	-26.7948	-79.659	146.913	-30.4483	-104.371	166.365	-51.4998	-54.5485	156.002	-82.3004	-49.9575	152.335	-74.5899	-8.77308	178.568	-61.4709	-44.0972	173.935	-86.7193	-30.9057	164.049	-73.1666	-0.464547	197.795	-62.3937	-31.3408	186.911	-84.596	-19.4125	176.139	-69.7147	4.11793	189.34	-16.2797	-3.45269	191.349	-10.2333	23.4047	159.872	-7.44712	9.03808	
39	0.325	128.58	-26.0459	28.6952	109.513	-31.1978	5.43569	88.9012	-33.5824	-11.8419	70.5828	-36.7207	-17.9199	145.514	-25.3076	-50.1852	144.224	-26.2897	-76.8359	145.699	-29.2738	-103.126	162.099	-52.7285	-56.5545	157.504	-84.9893	-47.4089	156.03	-74.4502	-9.08181	181.708	-63.5058	-43.8807	172.378	-87.33	-29.0729	164.918	-71.5535	0.39831	194.927	-62.3661	-32.4977	184.715	-85.1089	-17.5001	177.594	-66.8654	6.63004	191.674	-16.688	-4.64002	194.016	-11.6107	26.8534	157.551	-7.96555	9.04175	
40	0.333333	129.641	-26.6662	25.5427	111.12	-33.1157	7.74995	87.877	-34.6444	-9.02902	71.0386	-36.355	-20.3216	146.649	-24.6469	-51.3044	149.237	-27.7534	-76.9248	150.855	-30.5305	-105.363	167.279	-52.7074	-54.7747	158.208	-83.2108	-50.3455	156.037	-76.2035	-9.42793	184.701	-60.2694	-41.3657	174.362	-87.3694	-29.5527	169.379	-74.9123	1.05885	200.171	-64.8529	-31.5175	187.443	-85.8884	-16.3708	181.065	-69.3184	7.73446	189.219	-16.8062	-5.01729	193.416	-10.0987	25.746	160.657	-11.1162	10.4798	
41	0.341667	132.259	-28.3797	25.8682	110.735	-33.8822	10.2146	90.0403	-36.2165	-11.5832	69.0647	-37.7911	-21.4261	146.467	-25.4778	-52.4867	149.29	-28.6578	-78.3076	149.651	-30.6089	-101.774	165.153	-55.6775	-56.6492	162.051	-85.9068	-47.8347	160.08	-76.1242	-8.64985	184.3	-63.8936	-43.1416	175.267	-88.0508	-31.3974	170.298	-72.2673	2.02732	201.871	-63.385	-30.6713	184.917	-84.7185	-16.8014	182.647	-70.88	7.03457	191.424	-15.6071	-3.48195	193.216	-13.3094	23.4062	157.445	-10.8075	11.0629	
42	0.35	133.608	-29.7667	24.4091	112.856	-36.4242	9.13151	88.3792	-38.0776	-11.2754	68.4393	-39.4758	-20.9933	151.366	-28.5853	-55.2864	151.637	-31.3972	-76.5226	152.996	-33.175	-101.226	168.759	-57.6495	-56.1105	163.93	-86.4852	-49.7102	159.315	-79.3775	-9.01191	181.866	-62.2048	-42.2107	176.442	-89.3663	-28.5719	168.25	-77.2344	-0.00775426	202.822	-64.907	-30.966	190.579	-87.4088	-18.4155	182.093	-70.5976	8.00807	191.003	-16.3489	-3.70515	194.428	-13.0766	23.0393	157.943	-12.5275	7.52694	
43	0.358333	130.79	-30.4124	25.4427	114.005	-37.9703	7.48854	90.8587	-40.2852	-9.82996	73.3386	-42.8139	-20.0976	151.634	-29.8984	-50.6596	149.598	-31.9202	-81.2591	152.032	-33.9827	-101.501	167.577	-54.6869	-52.5048	159.558	-87.9039	-48.4902	156.985	-81.7045	-10.2792	183.917	-61.6671	-42.3875	175.719	-90.1604	-26.5971	172.894	-76.6042	1.84628	202.546	-66.883	-32.2183	188.122	-86.5175	-18.6961	182.677	-71.2847	6.96905	190.075	-17.2132	-3.4166	193.227	-12.1201	23.264	161.318	-13.3073	11.3485	
44	0.366667	134.146	-33.1064	22.518	114.254	-38.7704	8.43826	91.1679	-41.8651	-9.11245	71.8585	-44.1782	-19.7417	149.788	-30.3234	-55.6786	148.537	-33.7871	-77.7854	156.03	-37.0123	-102.9	166.252	-58.2989	-54.0702	163.456	-89.7455	-46.5746	158.074	-81.2205	-8.47398	183.769	-66.8931	-42.3171	175.778	-91.6463	-25.5069	172.048	-76.5284	2.03092	198.428	-65.3394	-30.6384	188.86	-87.3723	-15.8928	179.585	-71.234	5.14568	190.598	-17.4086	-7.77345	193.147	-13.9789	27.1403	158.237	-13.7558	11.7218	
45	0.375	133.324	-32.5419	23.788	111.212	-37.5224	6.44423	87.342	-39.0118	-9.75067	68.285	-41.1887	-18.8368	150.908	-32.2306	-50.641	147.168	-36.6186	-78.0678	152.006	-40.3227	-104.867	164.679	-58.7106	-53.4798	158.916	-90.0751	-48.222	157.82	-81.9035	-7.51874	181.914	-63.6183	-40.2719	174.892	-92.4014	-25.2467	168.967	-77.78	3.3603	200.457	-69.8805	-30.9363	187.729	-87.7579	-18.7937	182.129	-73.7481	10.2706	187.648	-19.397	-5.02192	195.366	-12.5652	27.1772	155.245	-13.8028	8.54156	
46	0.383333	129.359	-30.5308	24.9975	111.626	-35.7782	7.923	85.233	-37.4473	-10.9099	71.4949	-40.358	-17.2493	145.954	-34.4736	-51.9449	148.977	-39.5129	-77.1198	153.048	-44.0891	-104.763	164.489	-60.8688	-51.3949	156.306	-92.6901	-43.9865	155.317	-82.4143	-6.19546	179.851	-65.9098	-39.7803	171.723	-94.2198	-24.1817	166.144	-78.2788	4.30235	199.63	-73.7826	-30.1016	185.26	-91.246	-11.3358	176.714	-73.963	7.91969	192.014	-23.4771	-8.05133	194.834	-14.4957	22.408	159.363	-14.4053	8.96107	
47	0.391667	133.49	-27.7738	27.8429	108.382	-30.7444	9.60352	85.4562	-31.6219	-6.65437	70.4541	-34.4119	-19.629	143.83	-34.7433	-50.39	148.896	-40.8775	-77.214	146.377	-44.515	-100.851	163.519	-64.7143	-50.9479	151.914	-94.5732	-39.0064	149.152	-79.2543	-2.09139	178.123	-68.7561	-38.167	169.732	-96.1319	-19.9673	163.051	-79.5423	5.58698	194.613	-74.9438	-28.1615	178.505	-91.2871	-14.4222	172.108	-75.4071	9.25811	192.24	-22.7616	-5.48794	192.784	-14.3857	25.9063	158.932	-12.8104	12.2517	
48	0.4	130.544	-23.6084	27.5068	107.998	-25.7057	11.9172	84.7297	-26.2033	-8.27825	69.8799	-27.7399	-14.9133	145.627	-35.739	-55.1503	141.278	-39.8375	-74.9029	146.299	-46.8611	-98.3393	158.866	-66.8168	-49.723	144.401	-93.583	-38.7968	144.128	-78.2977	-1.06935	170.864	-72.1669	-38.0643	162.168	-96.5816	-21.5676	159.808	-74.396	9.23061	190.605	-77.0351	-26.0568	176.271	-95.8503	-9.55953	168.394	-75.6717	10.3456	191.196	-26.0527	-4.33828	195.513	-16.995	21.9748	159.38	-12.043	10.0467	
49	0.408333	132.874	-20.4286	25.2126	108.35	-20.1101	6.28187	86.0031	-18.0185	-5.45888	68.715	-17.3647	-17.5435	143.744	-35.9731	-50.6855	141.844	-43.2473	-79.1695	142.585	-50.271	-102.571	150.982	-63.0034	-47.1068	139.307	-94.6178	-32.9798	139.055	-77.3523	-0.213798	167.533	-77.4208	-34.9653	151.417	-95.9442	-17.8863	152.808	-73.2165	11.384	182.284	-78.5626	-24.8217	167.797	-95.9063	-6.45572	162.413	-76.2905	13.3768	189.905	-29.5182	-7.60734	192.781	-20.5186	21.3628	161.627	-10.6002	8.89727	
50	0.416667	130.676	-13.9535	24.2252	108.83	-12.353	9.73942	89.0276	-8.67087	-5.64591	70.4766	-3.75139	-18.0197	140.629	-33.6008	-52.4672	137.638	-41.12	-76.4901	137.994	-49.2613	-98.211	143.567	-67.5506	-47.0877	127.057	-89.2986	-33.2801	136.008	-75.0619	2.93907	160.978	-79.0992	-32.0218	144.144	-95.0836	-13.1386	148.689	-70.995	14.3711	173.476	-83.621	-21.2251	153.911	-93.4518	-4.59513	159.899	-74.7051	18.6081	185.916	-32.6262	-9.78376	194.108	-22.2899	19.5878	164.151	-11.875	9.68926	
51	0.425	134.014	-7.65299	27.7969	114.578	-6.74559	6.06671	94.6273	-1.31178	-7.70355	76.8778	6.89521	-19.6207	141.47	-33.7747	-48.2922	136.565	-42.7181	-71.4486	132.28	-49.3579	-97.4395	141.094	-63.9642	-42.5505	118.756	-85.5503	-29.6228	126.55	-65.2545	7.08781	154.68	-79.6786	-27.9064	131.773	-89.6617	-5.33848	143.044	-66.7711	17.5983	163.443	-86.4899	-17.8409	148.504	-94.421	1.76721	152.427	-68.6098	23.1588	186.067	-37.1531	-9.27566	198.324	-28.8489	21.2568	165.98	-9.84026	7.71149	
52	0.433333	138.803	-2.87017	24.3562	117.549	1.03281	6.9021	99.1824	6.71964	-11.5155	83.4078	17.75	-18.7013	139.724	-35.3019	-51.8132	132.342	-40.7951	-75.6118	131.204	-54.1326	-98.9331	134.169	-66.2136	-41.9385	109.658	-78.8878	-25.7674	124.265	-62.6974	8.50173	142.436	-78.1964	-25.9384	125.314	-85.5518	-2.57014	138.661	-61.7076	19.5779	155.995	-85.4961	-15.3632	137.106	-88.535	5.13965	145.793	-67.1921	25.0281	186.947	-42.1311	-8.50633	195.676	-29.4866	22.7857	169.287	-13.2577	6.43786	
53	0.441667	143.088	0.866174	22.831	122.706	9.07208	5.56214	105.162	16.922	-11.008	89.5292	29.656	-24.965	138.551	-32.1064	-49.4137	132.469	-41.1288	-71.1991	127.527	-52.2135	-93.901	127.97	-59.6506	-40.9062	102.611	-74.3288	-20.2049	118.365	-58.1194	10.0276	135.355	-78.182	-23.9455	118.222	-81.5196	-0.687271	131.489	-54.2477	18.6971	149.074	-86.4083	-12.9104	130.932	-87.7647	8.18595	137.889	-64.3916	25.9299	185.254	-44.1919	-7.36279	195.712	-33.4812	19.6351	170.524	-10.3937	2.97502	
